:SAMPLES-PER-SECOND 30
:FULLY-SPECIFIED
:DEGREES
405
root  26.999 33.6243 -9.46389 11.1952 -87.3682 -5.95569
RightUpLeg  -11.8048 -2.36476 2.9359
RightLeg  17.1577 -5.26862 -1.25974
RightFoot  0.553793 0.00397084 -0.216195
RightToes  -24.5732 -0.108071 -0.212537
Spine  6.57947 -3.41499 3.36379
Spine1  12.3389 -7.36857 6.23836
HEad  2.00077 -20.0776 19.4701
LeftShoulder1  0 -2.42657e-020 -4.95415e-022
LeftArm  -14.5505 -1.35791 -92.0418
LeftForeArm  49.3321 -37.119 -7.64239
LeftHand  0.248055 -11.207 -2.89961
RightShoulder  0 2.42657e-020 1.07489e-018
RightArm  -60.447 -7.96736 70.9753
RightForeArm  48.667 13.6035 2.42041
RightHand  -0.994016 18.2214 -5.82459
LeftUpLeg  -14.7584 14.1582 2.74005
LeftLeg  39.3368 7.88696 5.61687
LeftFoot  -5.83029 -0.0594727 -1.16787
LeftToes  -6.38655 1.33192e-006 1.13262e-007
406
root  27.4474 33.612 -9.5248 21.0696 -87.012 -14.8166
RightUpLeg  -13.4626 -2.53584 3.58616
RightLeg  16.9351 -5.32597 -1.2515
RightFoot  1.25527 0.00797039 -0.295791
RightToes  -24.2633 -0.106748 -0.21103
Spine  6.25385 -3.66875 3.40591
Spine1  11.7412 -7.92722 6.34509
HEad  1.67138 -19.5029 20.3751
LeftShoulder1  0 -2.42657e-020 -4.95415e-022
LeftArm  -15.5686 -0.986843 -93.4266
LeftForeArm  50.8194 -32.035 -6.3015
LeftHand  0.28431 -11.2647 -3.25418
RightShoulder  0 2.42657e-020 1.07489e-018
RightArm  -60.3282 -9.18375 70.5017
RightForeArm  48.4703 13.7075 2.44009
RightHand  -1.01937 18.2244 -5.98119
LeftUpLeg  -12.1168 14.247 2.93992
LeftLeg  36.3038 6.76326 4.30611
LeftFoot  -5.89526 -0.051487 -0.9999
LeftToes  -6.85885 1.33192e-006 1.13262e-007
407
root  27.9292 33.5804 -9.56699 25.4357 -86.0945 -18.0459
RightUpLeg  -15.4825 -3.54816 4.20258
RightLeg  17.1342 -4.99321 -1.19194
RightFoot  1.84457 0.0112862 -0.357268
RightToes  -24.4016 -0.105526 -0.209518
Spine  6.00333 -4.0685 3.44227
Spine1  11.2031 -8.82447 6.51775
HEad  0.955418 -19.0694 21.4932
LeftShoulder1  0 -2.42657e-020 -4.95415e-022
LeftArm  -17.222 -1.04062 -94.6198
LeftForeArm  53.4559 -25.8619 -4.86401
LeftHand  0.32868 -11.4225 -3.65769
RightShoulder  0 2.42657e-020 1.07489e-018
RightArm  -60.4101 -10.0436 70.4856
RightForeArm  47.8718 13.9438 2.48516
RightHand  -1.00516 18.308 -5.86379
LeftUpLeg  -9.90226 14.0601 3.01626
LeftLeg  32.6367 6.86694 3.78068
LeftFoot  -7.30387 -0.0745585 -1.16814
LeftToes  -5.9831 1.33192e-006 1.13262e-007
408
root  28.4544 33.5347 -9.59321 25.5143 -84.7908 -17.0092
RightUpLeg  -17.7711 -4.20323 4.68179
RightLeg  17.8226 -5.38991 -1.35506
RightFoot  2.30453 0.0159534 -0.431092
RightToes  -24.2709 -0.104549 -0.208219
Spine  5.87698 -4.48837 3.41468
Spine1  10.8565 -9.75538 6.59536
HEad  -0.0486285 -19.3394 22.9272
LeftShoulder1  0 -2.42657e-020 -4.95415e-022
LeftArm  -19.848 -0.669 -95.4219
LeftForeArm  56.8495 -22.2623 -4.0936
LeftHand  0.399938 -11.6268 -4.29913
RightShoulder  0 2.42657e-020 1.07489e-018
RightArm  -60.9135 -10.5888 71.0128
RightForeArm  47.6327 14.129 2.52016
RightHand  -1.00005 18.5347 -5.75508
LeftUpLeg  -8.09376 13.7326 2.9871
LeftLeg  28.6256 7.85727 3.63471
LeftFoot  -8.15433 -0.0993078 -1.39314
LeftToes  -6.33984 1.33192e-006 1.13262e-007
409
root  29.03 33.4808 -9.62499 25.5367 -83.4015 -15.9809
RightUpLeg  -20.2129 -4.9908 5.16503
RightLeg  18.7663 -5.76017 -1.54919
RightFoot  2.74321 0.020979 -0.500697
RightToes  -24.0602 -0.103958 -0.207351
Spine  5.77041 -4.79252 3.29105
Spine1  10.6542 -10.3765 6.37173
HEad  -0.952473 -20.1712 24.7317
LeftShoulder1  0 -2.42657e-020 -4.95415e-022
LeftArm  -23.5173 -0.12449 -95.6616
LeftForeArm  60.3833 -19.2855 -3.48504
LeftHand  0.434695 -11.6965 -4.61469
RightShoulder  0 2.42657e-020 1.07489e-018
RightArm  -61.1177 -10.868 71.9709
RightForeArm  47.7164 13.806 2.45968
RightHand  -1.00778 18.6584 -5.7608
LeftUpLeg  -6.76348 13.258 3.03213
LeftLeg  24.5392 8.32872 3.15605
LeftFoot  -7.59391 -0.0882764 -1.33008
LeftToes  -12.0794 1.33192e-006 1.13262e-007
410
root  29.6618 33.4292 -9.66069 24.9129 -82.2197 -14.3326
RightUpLeg  -22.7537 -5.41378 5.42483
RightLeg  19.7553 -6.23358 -1.79189
RightFoot  3.27984 0.0278494 -0.588029
RightToes  -23.9865 -0.103898 -0.207133
Spine  5.74012 -4.87184 3.00744
Spine1  10.658 -10.5118 5.81616
HEad  -2.22313 -21.3383 26.671
LeftShoulder1  0 -2.42657e-020 -4.95415e-022
LeftArm  -26.9517 0.468695 -95.1738
LeftForeArm  62.9222 -17.2 -3.07191
LeftHand  0.426502 -11.4376 -4.62965
RightShoulder  0 2.42657e-020 1.07489e-018
RightArm  -63.0244 -10.8744 73.5236
RightForeArm  49.5102 13.2405 2.35151
RightHand  -0.966419 18.9554 -5.41596
LeftUpLeg  -6.42869 12.622 2.93509
LeftLeg  21.3652 7.21774 2.29135
LeftFoot  -6.82192 -0.0617183 -1.03547
LeftToes  -17.992 1.33192e-006 1.13262e-007
411
root  30.3514 33.3911 -9.66902 22.3473 -80.7829 -10.8545
RightUpLeg  -25.2655 -6.48178 5.43975
RightLeg  20.7666 -6.51383 -1.99718
RightFoot  3.85754 0.0354261 -0.674266
RightToes  -23.8722 -0.10451 -0.207782
Spine  5.80527 -4.84638 2.54056
Spine1  10.881 -10.4195 4.90895
HEad  -4.02702 -22.9341 29.1604
LeftShoulder1  0 -2.42657e-020 -4.95415e-022
LeftArm  -29.5647 0.78192 -93.9208
LeftForeArm  64.3097 -15.7789 -2.79664
LeftHand  0.394095 -11.2165 -4.38436
RightShoulder  0 2.42657e-020 1.07489e-018
RightArm  -65.1045 -10.8763 75.6779
RightForeArm  51.3674 12.7671 2.26061
RightHand  -0.972257 19.3571 -5.32797
LeftUpLeg  -7.33753 11.1401 2.66146
LeftLeg  19.634 4.8916 1.39395
LeftFoot  -7.53841 -0.0514691 -0.781251
LeftToes  -15.8093 1.33192e-006 1.13262e-007
